# xmcd CD database file
#
# Track frame offsets:
#	150
#	8950
#	17250
#	28550
#	41325
#	50175
#	57775
#	69600
#	79925
#	87475
#	97450
#	107550
#	119750
#	128800
#	139400
#	148500
#	156300
#	165925
#	174750
#	182575
#
# Disc length: 2577 seconds
#
# Revision: 2
# Processed by: cddbd v1.5.1PL0 Copyright (c) Steve Scherf et al.
# Submitted via: CDex 1.51
#
DISCID=110a0f14
DTITLE=Jim Reeves - Live At The Opry
DYEAR=1900
DGENRE=Country
TTITLE0=Yonder Comes A Sucker
TTITLE1=Waitting For A Train
TTITLE2=Am I Losing You
TTITLE3=When God Dips His Love In My Heart
TTITLE4=According To My Heart
TTITLE5=Bimbo
TTITLE6=Mexican Joe
TTITLE7=Anna Marie
TTITLE8=Blue Boy 
TTITLE9=Softly And Tenderly
TTITLE10=He'll Have To Go
TTITLE11=Four Walls
TTITLE12=I'd Like To be
TTITLE13=Peace In The Valley 
TTITLE14=Billy Bayou
TTITLE15=In A Mansion Stands My Love
TTITLE16=I'm Getting Better
TTITLE17=(Gimme That) Old Time Religion
TTITLE18=I Know One
TTITLE19=I Missed Me
EXTD=
EXTT0=
EXTT1=
EXTT2=
EXTT3=
EXTT4=
EXTT5=
EXTT6=
EXTT7=
EXTT8=
EXTT9=
EXTT10=
EXTT11=
EXTT12=
EXTT13=
EXTT14=
EXTT15=
EXTT16=
EXTT17=
EXTT18=
EXTT19=
PLAYORDER=
